<svg xmlns="http://www.w3.org/2000/svg" width="430" height="270" viewBox="0 0 430 270" role="img" aria-labelledby="card-title card-desc">
  <title id="card-title">Activity Rhythm · UTC +1</title>
  <desc id="card-desc">Distribution of the latest public GitHub events by local hour</desc>
  <defs>
    <linearGradient id="background" x1="0" y1="0" x2="1" y2="1">
      <stop offset="0" stop-color="#0d1117"/>
      <stop offset="0.55" stop-color="#151827"/>
      <stop offset="1" stop-color="#101522"/>
    </linearGradient>
    <linearGradient id="accent" x1="0" y1="0" x2="1" y2="0">
      <stop offset="0" stop-color="#45e0ef"/>
      <stop offset="0.5" stop-color="#7b6cf6"/>
      <stop offset="1" stop-color="#d866ef"/>
    </linearGradient>
  </defs>
  <rect x="1" y="1" width="428" height="268" rx="18" fill="url(#background)" stroke="#30363d" stroke-width="2"/>
  <rect x="1" y="1" width="428" height="5" rx="3" fill="url(#accent)"/>
  <circle cx="29" cy="36" r="7" fill="#45e0ef"/>
  <text x="48" y="43" fill="#70a5fd" font-family="Segoe UI, Arial, sans-serif" font-size="22" font-weight="700">Activity Rhythm · UTC +1</text>
  <text x="28" y="67" fill="#a9b1d6" font-family="Segoe UI, Arial, sans-serif" font-size="12">Distribution of the latest public GitHub events by local hour</text>
  <line x1="28" y1="220" x2="392" y2="220" stroke="#30363d"/>
  <line x1="28" y1="100" x2="28" y2="220" stroke="#30363d"/>
  <rect x="30" y="220" width="10" height="2" rx="3" fill="#a371f7" opacity="0.18"/>
  <rect x="45" y="220" width="10" height="2" rx="3" fill="#a371f7" opacity="0.18"/>
  <rect x="60" y="207" width="10" height="13" rx="3" fill="#a371f7" opacity="1"/>
  <rect x="75" y="127" width="10" height="93" rx="3" fill="#a371f7" opacity="1"/>
  <rect x="90" y="220" width="10" height="2" rx="3" fill="#a371f7" opacity="0.18"/>
  <rect x="105" y="220" width="10" height="2" rx="3" fill="#a371f7" opacity="0.18"/>
  <rect x="120" y="220" width="10" height="2" rx="3" fill="#a371f7" opacity="0.18"/>
  <rect x="135" y="220" width="10" height="2" rx="3" fill="#a371f7" opacity="0.18"/>
  <rect x="150" y="187" width="10" height="33" rx="3" fill="#a371f7" opacity="1"/>
  <rect x="165" y="100" width="10" height="120" rx="3" fill="#45e0ef" opacity="1"/>
  <rect x="180" y="220" width="10" height="2" rx="3" fill="#a371f7" opacity="0.18"/>
  <rect x="195" y="220" width="10" height="2" rx="3" fill="#a371f7" opacity="0.18"/>
  <rect x="210" y="220" width="10" height="2" rx="3" fill="#a371f7" opacity="0.18"/>
  <rect x="225" y="220" width="10" height="2" rx="3" fill="#a371f7" opacity="0.18"/>
  <rect x="240" y="220" width="10" height="2" rx="3" fill="#a371f7" opacity="0.18"/>
  <rect x="255" y="220" width="10" height="2" rx="3" fill="#a371f7" opacity="0.18"/>
  <rect x="270" y="220" width="10" height="2" rx="3" fill="#a371f7" opacity="0.18"/>
  <rect x="285" y="220" width="10" height="2" rx="3" fill="#a371f7" opacity="0.18"/>
  <rect x="300" y="220" width="10" height="2" rx="3" fill="#a371f7" opacity="0.18"/>
  <rect x="315" y="220" width="10" height="2" rx="3" fill="#a371f7" opacity="0.18"/>
  <rect x="330" y="220" width="10" height="2" rx="3" fill="#a371f7" opacity="0.18"/>
  <rect x="345" y="220" width="10" height="2" rx="3" fill="#a371f7" opacity="0.18"/>
  <rect x="360" y="220" width="10" height="2" rx="3" fill="#a371f7" opacity="0.18"/>
  <rect x="375" y="220" width="10" height="2" rx="3" fill="#a371f7" opacity="0.18"/>
  <text x="35" y="242" text-anchor="middle" fill="#8b949e" font-family="Segoe UI, Arial, sans-serif" font-size="9">0</text>  <text x="125" y="242" text-anchor="middle" fill="#8b949e" font-family="Segoe UI, Arial, sans-serif" font-size="9">6</text>  <text x="215" y="242" text-anchor="middle" fill="#8b949e" font-family="Segoe UI, Arial, sans-serif" font-size="9">12</text>  <text x="305" y="242" text-anchor="middle" fill="#8b949e" font-family="Segoe UI, Arial, sans-serif" font-size="9">18</text>  <text x="380" y="242" text-anchor="middle" fill="#8b949e" font-family="Segoe UI, Arial, sans-serif" font-size="9">23</text>
  <text x="28" y="260" fill="#45e0ef" font-family="Segoe UI, Arial, sans-serif" font-size="10">Peak public activity: 09:00–10:00</text>
</svg>
