<svg xmlns="http://www.w3.org/2000/svg" width="430" height="270" viewBox="0 0 430 270" role="img" aria-labelledby="card-title card-desc">
  <title id="card-title">Languages by Code Volume</title>
  <desc id="card-desc">Aggregated public source bytes reported by GitHub</desc>
  <defs>
    <linearGradient id="background" x1="0" y1="0" x2="1" y2="1">
      <stop offset="0" stop-color="#0d1117"/>
      <stop offset="0.55" stop-color="#151827"/>
      <stop offset="1" stop-color="#101522"/>
    </linearGradient>
    <linearGradient id="accent" x1="0" y1="0" x2="1" y2="0">
      <stop offset="0" stop-color="#45e0ef"/>
      <stop offset="0.5" stop-color="#7b6cf6"/>
      <stop offset="1" stop-color="#d866ef"/>
    </linearGradient>
  </defs>
  <rect x="1" y="1" width="428" height="268" rx="18" fill="url(#background)" stroke="#30363d" stroke-width="2"/>
  <rect x="1" y="1" width="428" height="5" rx="3" fill="url(#accent)"/>
  <circle cx="29" cy="36" r="7" fill="#45e0ef"/>
  <text x="48" y="43" fill="#70a5fd" font-family="Segoe UI, Arial, sans-serif" font-size="22" font-weight="700">Languages by Code Volume</text>
  <text x="28" y="67" fill="#a9b1d6" font-family="Segoe UI, Arial, sans-serif" font-size="12">Aggregated public source bytes reported by GitHub</text>
  <circle cx="120" cy="166" r="58" fill="none" stroke="#21262d" stroke-width="20"/>
  <circle cx="120" cy="166" r="58" fill="none" stroke="#f7df1e" stroke-width="20" stroke-dasharray="348.43 16.00" stroke-dashoffset="-0.00" transform="rotate(-90 120 166)"/>
  <circle cx="120" cy="166" r="58" fill="none" stroke="#3776ab" stroke-width="20" stroke-dasharray="13.83 350.59" stroke-dashoffset="-348.43" transform="rotate(-90 120 166)"/>
  <circle cx="120" cy="166" r="58" fill="none" stroke="#e34f26" stroke-width="20" stroke-dasharray="1.74 362.68" stroke-dashoffset="-362.26" transform="rotate(-90 120 166)"/>
  <circle cx="120" cy="166" r="58" fill="none" stroke="#1572b6" stroke-width="20" stroke-dasharray="0.29 364.13" stroke-dashoffset="-364.00" transform="rotate(-90 120 166)"/>
  <circle cx="120" cy="166" r="58" fill="none" stroke="#7b6cf6" stroke-width="20" stroke-dasharray="0.13 364.29" stroke-dashoffset="-364.29" transform="rotate(-90 120 166)"/>
  <circle cx="120" cy="166" r="37" fill="#151827"/>
  <text x="120" y="161" text-anchor="middle" fill="#f0f6fc" font-family="Segoe UI, Arial, sans-serif" font-size="22" font-weight="800">5</text>
  <text x="120" y="180" text-anchor="middle" fill="#8b949e" font-family="Segoe UI, Arial, sans-serif" font-size="10">LANGUAGES</text>
  <rect x="244" y="94" width="11" height="11" rx="2" fill="#f7df1e"/>
  <text x="264" y="104" fill="#c9d1d9" font-family="Segoe UI, Arial, sans-serif" font-size="12">JavaScript</text>
  <text x="400" y="104" text-anchor="end" fill="#f7df1e" font-family="Segoe UI, Arial, sans-serif" font-size="12" font-weight="700">96%</text>
  <rect x="244" y="122" width="11" height="11" rx="2" fill="#3776ab"/>
  <text x="264" y="132" fill="#c9d1d9" font-family="Segoe UI, Arial, sans-serif" font-size="12">Python</text>
  <text x="400" y="132" text-anchor="end" fill="#3776ab" font-family="Segoe UI, Arial, sans-serif" font-size="12" font-weight="700">4%</text>
  <rect x="244" y="150" width="11" height="11" rx="2" fill="#e34f26"/>
  <text x="264" y="160" fill="#c9d1d9" font-family="Segoe UI, Arial, sans-serif" font-size="12">HTML</text>
  <text x="400" y="160" text-anchor="end" fill="#e34f26" font-family="Segoe UI, Arial, sans-serif" font-size="12" font-weight="700">0%</text>
  <rect x="244" y="178" width="11" height="11" rx="2" fill="#1572b6"/>
  <text x="264" y="188" fill="#c9d1d9" font-family="Segoe UI, Arial, sans-serif" font-size="12">CSS</text>
  <text x="400" y="188" text-anchor="end" fill="#1572b6" font-family="Segoe UI, Arial, sans-serif" font-size="12" font-weight="700">0%</text>
  <rect x="244" y="206" width="11" height="11" rx="2" fill="#7b6cf6"/>
  <text x="264" y="216" fill="#c9d1d9" font-family="Segoe UI, Arial, sans-serif" font-size="12">Other</text>
  <text x="400" y="216" text-anchor="end" fill="#7b6cf6" font-family="Segoe UI, Arial, sans-serif" font-size="12" font-weight="700">0%</text>
</svg>
