<svg xmlns="http://www.w3.org/2000/svg" width="880" height="260" viewBox="0 0 880 260" role="img" aria-labelledby="card-title card-desc">
  <title id="card-title">Profile Operations Snapshot</title>
  <desc id="card-desc">Public portfolio posture without third-party card rendering</desc>
  <defs>
    <linearGradient id="background" x1="0" y1="0" x2="1" y2="1">
      <stop offset="0" stop-color="#0d1117"/>
      <stop offset="0.55" stop-color="#151827"/>
      <stop offset="1" stop-color="#101522"/>
    </linearGradient>
    <linearGradient id="accent" x1="0" y1="0" x2="1" y2="0">
      <stop offset="0" stop-color="#45e0ef"/>
      <stop offset="0.5" stop-color="#7b6cf6"/>
      <stop offset="1" stop-color="#d866ef"/>
    </linearGradient>
  </defs>
  <rect x="1" y="1" width="878" height="258" rx="18" fill="url(#background)" stroke="#30363d" stroke-width="2"/>
  <rect x="1" y="1" width="878" height="5" rx="3" fill="url(#accent)"/>
  <circle cx="29" cy="36" r="7" fill="#45e0ef"/>
  <text x="48" y="43" fill="#70a5fd" font-family="Segoe UI, Arial, sans-serif" font-size="22" font-weight="700">Profile Operations Snapshot</text>
  <text x="28" y="67" fill="#a9b1d6" font-family="Segoe UI, Arial, sans-serif" font-size="12">Public portfolio posture without third-party card rendering</text>
  <rect x="28" y="91" width="190" height="116" rx="14" fill="#161b22" stroke="#30363d"/>
  <rect x="28" y="91" width="5" height="116" rx="3" fill="#45e0ef"/>
  <text x="48" y="123" fill="#8b949e" font-family="Segoe UI, Arial, sans-serif" font-size="12" font-weight="600">PUBLIC REPOSITORIES</text>
  <text x="48" y="169" fill="#45e0ef" font-family="Segoe UI, Arial, sans-serif" font-size="38" font-weight="800">6</text>
  <text x="48" y="193" fill="#c9d1d9" font-family="Segoe UI, Arial, sans-serif" font-size="11">Visible GitHub repositories</text>
  <rect x="238" y="91" width="190" height="116" rx="14" fill="#161b22" stroke="#30363d"/>
  <rect x="238" y="91" width="5" height="116" rx="3" fill="#7b6cf6"/>
  <text x="258" y="123" fill="#8b949e" font-family="Segoe UI, Arial, sans-serif" font-size="12" font-weight="600">FIRST-PARTY SYSTEMS</text>
  <text x="258" y="169" fill="#7b6cf6" font-family="Segoe UI, Arial, sans-serif" font-size="38" font-weight="800">6</text>
  <text x="258" y="193" fill="#c9d1d9" font-family="Segoe UI, Arial, sans-serif" font-size="11">Owned and actively developed</text>
  <rect x="448" y="91" width="190" height="116" rx="14" fill="#161b22" stroke="#30363d"/>
  <rect x="448" y="91" width="5" height="116" rx="3" fill="#d866ef"/>
  <text x="468" y="123" fill="#8b949e" font-family="Segoe UI, Arial, sans-serif" font-size="12" font-weight="600">TKB SYSTEMS</text>
  <text x="468" y="169" fill="#d866ef" font-family="Segoe UI, Arial, sans-serif" font-size="38" font-weight="800">4</text>
  <text x="468" y="193" fill="#c9d1d9" font-family="Segoe UI, Arial, sans-serif" font-size="11">Active organisation products</text>
  <rect x="658" y="91" width="190" height="116" rx="14" fill="#161b22" stroke="#30363d"/>
  <rect x="658" y="91" width="5" height="116" rx="3" fill="#22d3a6"/>
  <text x="678" y="123" fill="#8b949e" font-family="Segoe UI, Arial, sans-serif" font-size="12" font-weight="600">OWNER DOMAINS</text>
  <text x="678" y="169" fill="#22d3a6" font-family="Segoe UI, Arial, sans-serif" font-size="38" font-weight="800">3</text>
  <text x="678" y="193" fill="#c9d1d9" font-family="Segoe UI, Arial, sans-serif" font-size="11">TKB · Conroy · Marty</text>
  <circle cx="31" cy="235" r="5" fill="#22d3a6"/>
  <text x="44" y="239" fill="#8b949e" font-family="Segoe UI, Arial, sans-serif" font-size="11">Repository-owned card · generated from the GitHub API · 22 Jul 2026 · 08:50 UTC</text>
</svg>
