<svg xmlns="http://www.w3.org/2000/svg" width="1600" height="520" viewBox="0 0 1600 520" role="img" aria-labelledby="title desc">
  <title id="title">Conroy — systems builder and project operator</title>
  <desc id="desc">A dark technical banner representing operational software, automation, research platforms, game systems and community infrastructure.</desc>
  <defs>
    <linearGradient id="background" x1="0" y1="0" x2="1" y2="1">
      <stop offset="0" stop-color="#070b14"/>
      <stop offset="0.48" stop-color="#0d1727"/>
      <stop offset="1" stop-color="#171126"/>
    </linearGradient>
    <linearGradient id="accent" x1="0" y1="0" x2="1" y2="0">
      <stop offset="0" stop-color="#65e6f5"/>
      <stop offset="0.48" stop-color="#7970f6"/>
      <stop offset="1" stop-color="#d06bf0"/>
    </linearGradient>
    <linearGradient id="panel" x1="0" y1="0" x2="0" y2="1">
      <stop offset="0" stop-color="#ffffff" stop-opacity="0.09"/>
      <stop offset="1" stop-color="#ffffff" stop-opacity="0.025"/>
    </linearGradient>
    <pattern id="grid" width="48" height="48" patternUnits="userSpaceOnUse">
      <path d="M48 0H0V48" fill="none" stroke="#b5eaff" stroke-opacity="0.035"/>
    </pattern>
    <filter id="glow" x="-50%" y="-50%" width="200%" height="200%">
      <feGaussianBlur stdDeviation="18"/>
    </filter>
  </defs>

  <rect width="1600" height="520" rx="30" fill="url(#background)"/>
  <rect width="1600" height="520" rx="30" fill="url(#grid)"/>
  <rect x="1" y="1" width="1598" height="518" rx="29" fill="none" stroke="#ffffff" stroke-opacity="0.10"/>

  <circle cx="1270" cy="72" r="170" fill="#665bf0" opacity="0.12" filter="url(#glow)"/>
  <circle cx="1470" cy="430" r="190" fill="#d06bf0" opacity="0.09" filter="url(#glow)"/>
  <circle cx="130" cy="500" r="130" fill="#65e6f5" opacity="0.07" filter="url(#glow)"/>

  <g transform="translate(74 70)">
    <rect width="76" height="76" rx="19" fill="url(#panel)" stroke="#ffffff" stroke-opacity="0.13"/>
    <path d="M20 24h36v8H43v25H33V32H20z" fill="url(#accent)"/>
    <path d="M20 49h36v8H20z" fill="#ffffff" opacity="0.92"/>
  </g>

  <text x="176" y="97" fill="#93a2b8" font-family="Inter,Segoe UI,Arial,sans-serif" font-size="16" font-weight="700" letter-spacing="3.8">SYSTEMS BUILDER · EDINBURGH, SCOTLAND</text>
  <text x="72" y="207" fill="#ffffff" font-family="Inter,Segoe UI,Arial,sans-serif" font-size="86" font-weight="850" letter-spacing="-3">CONROY</text>
  <rect x="74" y="232" width="700" height="5" rx="2.5" fill="url(#accent)"/>
  <text x="74" y="284" fill="#d2d9e4" font-family="Inter,Segoe UI,Arial,sans-serif" font-size="25" font-weight="600">Turning operational friction into dependable digital systems.</text>
  <text x="74" y="324" fill="#9caabd" font-family="Inter,Segoe UI,Arial,sans-serif" font-size="19">Browser tooling · Automation · Research platforms · Game systems · Self-hosting</text>

  <g transform="translate(74 374)">
    <rect width="176" height="48" rx="24" fill="url(#panel)" stroke="#ffffff" stroke-opacity="0.12"/>
    <circle cx="25" cy="24" r="5" fill="#65e6f5"/>
    <text x="43" y="30" fill="#edf3fa" font-family="Inter,Segoe UI,Arial,sans-serif" font-size="14" font-weight="750" letter-spacing="1.2">BUILD</text>

    <rect x="192" width="188" height="48" rx="24" fill="url(#panel)" stroke="#ffffff" stroke-opacity="0.12"/>
    <circle cx="217" cy="24" r="5" fill="#7970f6"/>
    <text x="235" y="30" fill="#edf3fa" font-family="Inter,Segoe UI,Arial,sans-serif" font-size="14" font-weight="750" letter-spacing="1.2">OPERATE</text>

    <rect x="396" width="186" height="48" rx="24" fill="url(#panel)" stroke="#ffffff" stroke-opacity="0.12"/>
    <circle cx="421" cy="24" r="5" fill="#d06bf0"/>
    <text x="439" y="30" fill="#edf3fa" font-family="Inter,Segoe UI,Arial,sans-serif" font-size="14" font-weight="750" letter-spacing="1.2">IMPROVE</text>
  </g>

  <g transform="translate(970 72)">
    <rect width="550" height="374" rx="27" fill="url(#panel)" stroke="#ffffff" stroke-opacity="0.10"/>
    <text x="34" y="48" fill="#8f9db2" font-family="Inter,Segoe UI,Arial,sans-serif" font-size="13" font-weight="700" letter-spacing="2.5">ACTIVE PORTFOLIO</text>

    <g transform="translate(34 76)">
      <rect width="482" height="58" rx="14" fill="#071522" stroke="#65e6f5" stroke-opacity="0.32"/>
      <circle cx="29" cy="29" r="7" fill="#65e6f5"/>
      <text x="50" y="25" fill="#ffffff" font-family="Inter,Segoe UI,Arial,sans-serif" font-size="16" font-weight="750">MISSIONCHIEF MAP COMMAND TOOLKIT</text>
      <text x="50" y="44" fill="#8797aa" font-family="Inter,Segoe UI,Arial,sans-serif" font-size="12">OPERATIONAL BROWSER PLATFORM</text>
    </g>

    <g transform="translate(34 148)">
      <rect width="482" height="58" rx="14" fill="#111126" stroke="#7970f6" stroke-opacity="0.34"/>
      <circle cx="29" cy="29" r="7" fill="#7970f6"/>
      <text x="50" y="25" fill="#ffffff" font-family="Inter,Segoe UI,Arial,sans-serif" font-size="16" font-weight="750">GITHUB ACHIEVEMENT ENCYCLOPEDIA</text>
      <text x="50" y="44" fill="#8797aa" font-family="Inter,Segoe UI,Arial,sans-serif" font-size="12">EVIDENCE-LED RESEARCH PLATFORM</text>
    </g>

    <g transform="translate(34 220)">
      <rect width="482" height="58" rx="14" fill="#151020" stroke="#d06bf0" stroke-opacity="0.32"/>
      <circle cx="29" cy="29" r="7" fill="#d06bf0"/>
      <text x="50" y="25" fill="#ffffff" font-family="Inter,Segoe UI,Arial,sans-serif" font-size="16" font-weight="750">UK FIRE COMMAND</text>
      <text x="50" y="44" fill="#8797aa" font-family="Inter,Segoe UI,Arial,sans-serif" font-size="12">PERSISTENT EMERGENCY-SERVICE GAME</text>
    </g>

    <g transform="translate(34 292)">
      <rect width="482" height="58" rx="14" fill="#101723" stroke="#ffffff" stroke-opacity="0.14"/>
      <circle cx="29" cy="29" r="7" fill="#b7c2d1"/>
      <text x="50" y="25" fill="#ffffff" font-family="Inter,Segoe UI,Arial,sans-serif" font-size="16" font-weight="750">TEAM KILLING BASTARDS</text>
      <text x="50" y="44" fill="#8797aa" font-family="Inter,Segoe UI,Arial,sans-serif" font-size="12">COMMUNITY SOFTWARE &amp; INFRASTRUCTURE</text>
    </g>
  </g>
</svg>